# xmcd CD database file
#
# Track frame offsets:
#	150
#	7263
#	24489
#	43404
#	50364
#	61381
#	66950
#	83453
#	85668
#	94509
#	111199
#	114822
#	130796
#	135218
#	146319
#
# Disc length: 2691 seconds
#
# Revision: 0
# Processed by: cddbd v1.5.1PL2 Copyright (c) Steve Scherf et al.
# Submitted via: CDex 1.51
#
DISCID=b90a810f
DTITLE=HIFANA - CHANNEL H
DYEAR=2005
DGENRE=Trip-Hop
TTITLE0=CHANNEL PUSH BREAKIN'
TTITLE1=WAMONO 〜和モノ〜
TTITLE2=Mr.BEER feat.三宅洋平from犬式(a.k.a.Dogggystyle) and KURTIS FLY
TTITLE3=SEE'EM
TTITLE4=TANGLANG〜短ラン〜
TTITLE5=NOW THINKING
TTITLE6=NAMPOOH feat.Keyco
TTITLE7=NOW PLAYING feat.U-zhaan and KEISUKE MUTO
TTITLE8=RYUKYU LONG BOARD
TTITLE9=AKERO feat.TWIGY
TTITLE10=RAGGACHIN"H"feat.PRO.CHINNEN
TTITLE11=WAIYANDUB feat.TUCKER
TTITLE12=WWW.HIFANA.COM
TTITLE13=PEETEEJAY
TTITLE14=ASALATO
EXTD=YEAR: 2005
EXTT0=
EXTT1=
EXTT2=
EXTT3=
EXTT4=
EXTT5=
EXTT6=
EXTT7=
EXTT8=
EXTT9=
EXTT10=
EXTT11=
EXTT12=
EXTT13=
EXTT14=
PLAYORDER=
